<?xml version="1.0" standalone="no"?> 
<!DOCTYPE svg PUBLIC "-//W3C//DTD SVG 1.1//EN" "http://www.w3.org/Graphics/SVG/1.1/DTD/svg11.dtd" >
<svg xmlns="http://www.w3.org/2000/svg">
<defs>
  <font id="ax-icon-v1" horiz-adv-x="513">
    <font-face font-family="ax-icon-v1"
      units-per-em="512" ascent="512"
      descent="0" />
    <missing-glyph horiz-adv-x="0" />
    <glyph glyph-name="add-attribute"
      unicode="&#xF101;"
      horiz-adv-x="512" d=" M107 469Q89 469 76.5 456.5T64 427V85Q64 68 76.5 55.5T107 43H277Q295 43 307.5 55.5T320 85V130Q305 132 277 145V85H107V427H277V367Q296 379 320 382V427Q320 444 307.5 456.5T277 469H107zM341 363Q297 363 266 332T235 256T266 180T341.5 149T417 180T448 256T417 332T341 363zM320 320H363V277H405V235H363V192H320V235H277V277H320V320z" />
    <glyph glyph-name="addstorage"
      unicode="&#xF102;"
      horiz-adv-x="512" d=" M347 357Q347 351 340.5 351T334 356T337 363T343.5 363T347 357zM321 357Q321 351 314.5 351T308 356T311 363T317.5 363T321 357zM296 357Q296 351 289.5 351T283 356T286.5 363T293 363T296 357zM270 357Q270 351 263.5 351T257 356T260.5 363T267 363T270 357zM244 357Q244 351 238 351T232 356T235 363T241 363T244 357zM219 357Q219 351 212.5 351T206 356T209 363T215.5 363T219 357zM193 357Q193 351 186.5 351T180 356T183 363T189.5 363T193 357zM168 357Q168 351 161.5 351T155 356T158.5 363T165 363T168 357zM142 357Q142 351 135.5 351T129 356T132.5 363T139 363T142 357zM116 357Q116 351 110 351T104 356T107 363T113 363T116 357zM347 261Q347 255 340.5 255T334 260T337 267T343.5 267T347 261zM321 261Q321 255 314.5 255T308 260T311 267T317.5 267T321 261zM296 261Q296 255 289.5 255T283 260T286.5 267T293 267T296 261zM270 261Q270 255 263.5 255T257 260T260.5 267T267 267T270 261zM244 261Q244 255 238 255T232 260T235 267T241 267T244 261zM219 261Q219 255 212.5 255T206 260T209 267T215.5 267T219 261zM193 261Q193 255 186.5 255T180 260T183 267T189.5 267T193 261zM168 261Q168 255 161.5 255T155 260T158.5 267T165 267T168 261zM142 261Q142 255 135.5 255T129 260T132.5 267T139 267T142 261zM116 261Q116 255 110 255T104 260T107 267T113 267T116 261zM244 165Q244 159 238 159T232 164T235 171T241 171T244 165zM219 165Q219 159 212.5 159T206 164T209 171T215.5 171T219 165zM193 165Q193 159 186.5 159T180 164T183 171T189.5 171T193 165zM168 165Q168 159 161.5 159T155 164T158.5 171T165 171T168 165zM142 165Q142 159 135.5 159T129 164T132.5 171T139 171T142 165zM116 165Q116 159 110 159T104 164T107 171T113 171T116 165zM60 469V470Q60 474 56 474Q60 474 60 478V489Q60 493 56 493Q60 493 60 497V508Q60 512 56 512H4Q0 512 0 508V497Q0 493 4 493Q0 493 0 489V478Q0 474 4 474Q0 474 0 470V459Q0 455 4 455Q0 455 0 452V440Q0 437 4 437H37zM37 503H43H37zM37 484H43H37zM37 465H43H37zM72 450Q72 443 67 438T55 433T43.5 438T39 450Q39 466 55.5 466T72 450zM312 143H399V131H312V143zM362 180V93H349V180H362z" />
    <glyph glyph-name="admin-access"
      unicode="&#xF103;"
      horiz-adv-x="512" d=" M384 469H128Q111 469 98 456.5T85 427V192Q85 172 102 158L256 43L410 158Q427 172 427 192V427Q427 444 414 456.5T384 469zM256 384Q274 384 286.5 371.5T299 341.5T286.5 311.5T256 299T225.5 311.5T213 341.5T225.5 371.5T256 384zM341 213H171V230Q174 235 180.5 243T209 264T256 277T302 265.5T332 242L341 230V213z" />
    <glyph glyph-name="applications"
      unicode="&#xF104;"
      horiz-adv-x="512" d=" M256 450L247 446L55 363L43 357V325L55 319L256 233L457 319L469 325V357L457 363L265 446zM256 403L399 341L256 279L113 341zM43 306V242L256 149L469 242V306L427 287V270L256 196L85 270V287zM43 221V157L256 64L469 157V221L427 202V185L256 111L85 185V202z" />
    <glyph glyph-name="approval"
      unicode="&#xF105;"
      horiz-adv-x="512" d=" M107 469Q89 469 76.5 456.5T64 427V107Q64 89 76.5 76.5T107 64H235L192 107H107V427H363V149L405 192V427Q405 444 392.5 456.5T363 469H107zM475 205L344 73L293 124L262 94L343 13L359 27L506 175z" />
    <glyph glyph-name="artifact"
      unicode="&#xF106;"
      horiz-adv-x="512" d=" M85 427Q68 427 55.5 414T43 384V128Q43 111 55.5 98T85 85H427Q444 85 456.5 98T469 128V341Q469 358 456 370.5T427 384H235L192 427H85zM213 341H299V320H213V341zM213 299H299V277H213V299zM213 256H299Q320 193 320 183Q320 162 304.5 147T265 129Q262 128 256 128T247 129Q223 132 207.5 147T192 183Q192 189 197 207T208 240zM256 219Q245 219 237 211T229 192T237 173T256 165T275 173T283 192T275 211T256 219z" />
    <glyph glyph-name="axlogo"
      unicode="&#xF107;"
      horiz-adv-x="512" d=" M179 246V208Q164 191 149 189Q115 185 115 216Q115 243 148 247zM431 123L441 137L359 263Q411 342 416 351Q419 356 418 358T414 361L412 362H370L334 301Q318 328 305 346Q295 359 284 361Q276 362 265.5 359T249 352L243 348L301 258L257 190L249 185Q245 182 241.5 184.5T236 193T234 204V300Q233 325 216 343Q208 352 195.5 357T175 362L167 363H62Q59 359 53 343L44 319L151 320Q165 320 172 312.5T179 296L180 279Q175 280 166.5 280.5T137 279.5T100 271.5T72.5 247.5T64 202T91.5 160.5T144 152Q156 154 167 160T182 171L187 176Q204 144 238 143Q254 143 267.5 150T287 164L293 171L328 217L406 96zM477 257Q477 166 412 101.5T256 37T100 101.5T35 257T99.5 413T256 478T412.5 413T477 257V257z" />
    <glyph glyph-name="back"
      unicode="&#xF108;"
      horiz-adv-x="512" d=" M256 469Q168 469 105.5 406.5T43 256T105.5 105.5T256 43T406.5 105.5T469 256T406.5 406.5T256 469zM256 427Q327 427 377 377T427 256T377 135T256 85T135 135T85 256T135 377T256 427zM241 378L134 271L119 256L241 134L271 165L201 235H384V277H201L271 347z" />
    <glyph glyph-name="bitbucket"
      unicode="&#xF109;"
      horiz-adv-x="512" d=" M256 481Q171 481 111 464T51 422L82 225Q82 200 134 182T256 164T378 182T430 225L461 422Q461 447 401 464T256 481zM256 451Q315 451 357 440.5T399 414.5T357.5 389T256 379T154.5 389T113 414.5T155 440.5T256 451zM256 328Q282 328 299.5 310T317 266T299.5 222.5T256 205T212.5 222.5T195 266T212.5 310T256 328zM256 297Q243 297 234 288T225 266T234 244.5T256 236T278 244.5T287 266T278 288T256 297zM110 170L123 76Q123 57 161.5 44T253 31T344.5 44T383 76L396 167Q335 143 256 143Q167 143 110 170z" />
    <glyph glyph-name="branch"
      unicode="&#xF10A;"
      horiz-adv-x="512" d=" M427 405Q427 432 408 450.5T362.5 469T317.5 450.5T299 405Q299 362 339 346Q334 323 312 311T244 288Q194 276 171 263V345Q189 352 201 368.5T213 405Q213 432 194.5 450.5T149.5 469T104 450.5T85 405Q85 385 97 368.5T128 345V167Q109 160 97 143.5T85 107Q85 80 104 61.5T149.5 43T194.5 61.5T213 107Q213 127 201 143.5T171 167V192Q171 214 188.5 224.5T254 247Q280 253 295.5 258T332.5 274T366.5 303T383 345Q402 351 414.5 367.5T427 405zM149 85Q141 85 134.5 91.5T128 106.5T134.5 121.5T149.5 128T164.5 121.5T171 106.5T164.5 91.5T149 85zM149 427Q158 427 164.5 420.5T171 405.5T164.5 390.5T149.5 384T134.5 390.5T128 405.5T134.5 420.5T149 427zM363 384Q354 384 347.5 390.5T341 405.5T347.5 420.5T362.5 427T377.5 420.5T384 405.5T377.5 390.5T363 384z" />
    <glyph glyph-name="build"
      unicode="&#xF10B;"
      horiz-adv-x="512" d=" M213 469V443Q159 431 120 392T69 299H43V213H128V299H113Q124 335 150.5 361.5T213 399V384H299V469H213zM320 437V391Q378 363 398 299H384V213H469V299H442Q431 346 398.5 383T320 437zM75 192Q91 145 127.5 112T213 69V43H299V128H213V113Q152 131 121 192H75zM391 192Q367 145 320 121V75Q360 89 391.5 120T437 192H391z" />
    <glyph glyph-name="calendar-menu"
      unicode="&#xF10C;"
      horiz-adv-x="512" d=" M256 20Q158 20 89 89T20 256T89 423T256 492T423 423T492 256T423 89T256 20zM177 388V362H163Q152 362 144.5 354T137 335V150Q137 140 144.5 132T163 124H349Q360 124 367.5 132T375 150V335Q375 346 367.5 354T349 362H335V388H309V362H203V388H177zM163 296H349V150H163V296zM256 243V177H322V243H256z" />
    <glyph glyph-name="calendar"
      unicode="&#xF10D;"
      horiz-adv-x="512" d=" M128 469V427H107Q89 427 76.5 414T64 384V85Q64 68 76.5 55.5T107 43H405Q423 43 435.5 55.5T448 85V384Q448 401 435.5 414T405 427H384V469H341V427H171V469H128zM107 320H405V85H107V320zM256 235V128H363V235H256z" />
    <glyph glyph-name="cancel-2-1"
      unicode="&#xF10E;"
      horiz-adv-x="512" d=" M256 469Q168 469 105.5 406.5T43 256T105.5 105.5T256 43T406.5 105.5T469 256T406.5 406.5T256 469zM256 427Q326 427 376.5 376.5T427 256Q427 198 391 151L151 391Q198 427 256 427zM121 361L361 121Q314 85 256 85Q186 85 135.5 135.5T85 256Q85 314 121 361z" />
    <glyph glyph-name="cancel-2"
      unicode="&#xF10F;"
      horiz-adv-x="512" d=" M256 469Q168 469 105.5 406.5T43 256T105.5 105.5T256 43T406.5 105.5T469 256T406.5 406.5T256 469zM361 181L331 151L256 226L181 151L151 181L226 256L151 331L181 361L256 286L331 361L361 331L286 256z" />
    <glyph glyph-name="cancel"
      unicode="&#xF110;"
      horiz-adv-x="512" d=" M21 500L17 496L21 492L20 491L16 495L12 491L11 492L15 496L11 500L12 501L16 497L20 501zM29 496Q29 483 16 483T3 496T16 509T29 496zM5 496Q5 485 16 485T27 496T16 507T5 496zM256 459Q172 459 112.5 399.5T53 256T112.5 112.5T256 53T399.5 112.5T459 256T399.5 399.5T256 459zM256 428Q327 428 377.5 377.5T428 256T377.5 134.5T256 84T134.5 134.5T84 256T134.5 377.5T256 428zM197 338L174 315L234 256L174 197L197 174L256 234L315 174L338 197L278 256L338 315L315 338L256 278z" />
    <glyph glyph-name="cashboard"
      unicode="&#xF111;"
      horiz-adv-x="512" d=" M427 469H85Q68 469 55.5 456.5T43 427V85Q43 68 55.5 55.5T85 43H427Q444 43 456.5 55.5T469 85V427Q469 444 456.5 456.5T427 469zM235 303Q235 298 241 294L252 286L267 279Q282 273 294.5 266.5T316 252Q324 242 329 233Q333 226 333 207Q333 199 329 181Q324 172 316 162L297 149Q292 147 282 145L271 143V111H245V141Q232 141 220 147Q215 149 207 154L198 160Q193 165 183 181Q177 195 177 213H222Q222 201 224 194Q228 186 233 181L243 175Q247 173 256 173T269 175T277.5 181.5T284 190T286 201.5T284 211Q280 219 276.5 220.5T267 228L252 235L224 247Q210 254 203 262Q193 272 190 282Q186 288 186 307Q186 317 190 331Q193 340 203.5 350.5T222 363Q234 369 247 369V410H273V375Q289 371 296.5 366.5T316 352L323 341Q327 333 329 331Q333 313 333 303H288Q288 322 279 331Q274 339 258 339Q250 339 245.5 337T237 331Q235 329 235 324Q235 322 234 319T233 314Q233 307 235 303z" />
    <glyph glyph-name="catalog"
      unicode="&#xF112;"
      horiz-adv-x="512" d=" M85 427V341H171V427H85zM213 427V341H299V427H213zM341 427V341H427V427H341zM85 299V213H171V299H85zM213 299V213H299V299H213zM341 299V213H427V299H341zM85 171V85H171V171H85zM213 171V85H299V171H213zM341 171V85H427V171H341z" />
    <glyph glyph-name="checked"
      unicode="&#xF113;"
      horiz-adv-x="512" d=" M256 469Q168 469 105.5 406.5T43 256T105.5 105.5T256 43Q339 43 399 98T467 235H425Q417 172 368.5 128.5T256 85Q186 85 135.5 135.5T85 256T135.5 376.5T256 427Q297 427 339 405L371 437Q317 469 256 469zM437 408L239 218L160 297L130 267L239 158L254 173L467 377z" />
    <glyph glyph-name="checkmark"
      unicode="&#xF114;"
      horiz-adv-x="512" d=" M411 399L192 180L101 271L70 241L192 119L442 369z" />
    <glyph glyph-name="checkout"
      unicode="&#xF115;"
      horiz-adv-x="512" d=" M235 469V427H277V469H235zM235 405V363H277V405H235zM235 341V189L165 257L135 227L256 107L377 227L347 257L277 189V341H235zM43 213V85Q43 68 55.5 55.5T85 43H427Q444 43 456.5 55.5T469 85V213H427V85H85V213H43z" />
    <glyph glyph-name="clock"
      unicode="&#xF116;"
      horiz-adv-x="512" d=" M256 469Q168 469 105.5 406.5T43 256T105.5 105.5T256 43T406.5 105.5T469 256T406.5 406.5T256 469zM256 427Q327 427 377 377T427 256T377 135T256 85T135 135T85 256T135 377T256 427zM235 363V247L305 177L335 207L277 265V363H235z" />
    <glyph glyph-name="close"
      unicode="&#xF117;"
      horiz-adv-x="512" d=" M120 422L90 392L226 256L90 120L120 90L256 226L392 90L422 120L286 256L422 392L392 422L256 286z" />
    <glyph glyph-name="code-file"
      unicode="&#xF118;"
      horiz-adv-x="512" d=" M320 469H128Q110 469 97.5 456.5T85 427V85Q85 68 97.5 55.5T128 43H384Q402 43 414.5 55.5T427 85V363zM128 192L171 256H213L171 192L213 128H171zM213 85L256 299H299L256 85H213zM341 128H299L341 192L299 256H341L384 192zM384 341H299V427H302L384 345V341z" />
    <glyph glyph-name="collapse-arrow"
      unicode="&#xF119;"
      horiz-adv-x="512" d=" M256 403L241 389L49 197L79 166L256 343L433 166L463 197L271 389z" />
    <glyph glyph-name="commit"
      unicode="&#xF11A;"
      horiz-adv-x="512" d=" M256 20Q158 20 89 89T20 256T89 423T256 492T423 423T492 256T423 89T256 20zM256 61Q336 61 393.5 118.5T451 256T393.5 393.5T256 451T118.5 393.5T61 256T118.5 118.5T256 61zM256 307Q220 307 208 273H85V239H208Q220 205 256 205T304 239H427V273H304Q292 307 256 307zM256 273Q273 273 273 256T256 239T239 256T256 273z" />
    <glyph glyph-name="concurrent-usage"
      unicode="&#xF11B;"
      horiz-adv-x="512" d=" M96 469Q74 469 58.5 453.5T43 416T58.5 378.5T96 363Q101 363 113 365L165 305Q149 283 149 256T165 207L113 147Q101 149 96 149Q74 149 58.5 133.5T43 96T58.5 58.5T96 43T133.5 58.5T149 96Q149 109 145 118L197 179Q216 171 235 171Q251 171 266 177L306 123Q299 112 299 96Q299 74 314.5 58.5T352 43T389.5 58.5T405 96T389.5 133.5T352 149Q344 149 341 148L301 202Q314 220 318 239L369 243Q382 213 416 213Q438 213 453.5 229T469 267T453.5 304.5T416 320Q379 320 366 285L315 282Q311 297 300 311L339 365Q347 363 352 363Q374 363 389.5 378.5T405 416T389.5 453.5T352 469T314.5 453.5T299 416Q299 403 305 391L265 335Q251 341 235 341Q216 341 197 333L145 394Q149 403 149 416Q149 438 133.5 453.5T96 469z" />
    <glyph glyph-name="configurations"
      unicode="&#xF11C;"
      horiz-adv-x="512" d=" M10 501V502L7 503L6 500L8 499V493L6 492L7 489L10 490V491L14 488L15 485H17L18 488L22 491V490L25 489L26 492L24 493V499L26 500L25 503L22 502V501L18 504L17 507H15L14 504L11 502zM14 509H19L20 505L21 504L26 505V504L29 500H28L26 498V494L28 492H29L26 488V487L21 488L20 487L19 483H13L12 487L11 488L6 487V488L3 492H4L6 494V498L4 500H3L6 504V505L11 504L12 505L13 509H14zM21 496Q21 491 16 491T11 496T16 501T21 496zM13 496Q13 493 16 493T19 496T16 499T13 496zM211 462L209 449L200 402Q177 393 159 378L100 397L94 386L62 332L56 320L101 281Q98 269 98 256T101 231L56 192L62 180L94 126L100 115L159 134Q177 119 200 110L209 63L211 50H301L303 63L312 110Q335 119 353 134L412 115L418 126L450 180L456 192L411 231Q414 243 414 256T411 281L456 320L450 332L418 386L412 397L353 378Q335 393 312 402L303 449L301 462H211zM237 430H275L285 380L294 377Q322 368 342 349L348 343L397 359L416 327L385 299L377 293L380 284Q383 270 383 256T380 228L378 219L416 185L397 153L348 169L342 163Q322 144 294 135L285 132L275 82H237L227 132L218 135Q190 144 170 163L164 169L115 153L96 185L127 213L135 219L132 228Q129 242 129 256T132 284L135 293L127 299L96 327L115 359L164 343L170 349Q190 368 218 377L227 380L229 389zM256 335Q223 335 200 312T177 256T200 200T256 177T312 200T335 256T312 312T256 335zM256 303Q276 303 289.5 289.5T303 256T289.5 222.5T256 209T222.5 222.5T209 256T222.5 289.5T256 303z" />
    <glyph glyph-name="connect"
      unicode="&#xF11D;"
      horiz-adv-x="512" d=" M374 469H139L22 256L138 43H374L491 256zM344 98L297 149H355zM171 411L194 385L171 377V411zM366 198L360 171H278L270 179L327 241zM341 256L391 310L372 223zM255 195L201 254L259 315L312 256zM231 376L316 406L259 346zM216 393L185 427H310zM210 368L244 331L186 270L171 287V354zM149 311L124 338L149 347V311zM186 239L241 179L233 171H171V223zM149 171H121L149 200V171zM171 149H213L171 103V149zM242 149H268L327 85H183zM384 179L391 171H382zM389 204L414 316L448 256L407 184zM396 347L327 272L273 330L357 418zM149 407V369L122 360zM104 328L149 279V231L104 184L64 256zM124 149H149V104zM370 117L377 149H388z" />
    <glyph glyph-name="console"
      unicode="&#xF11E;"
      horiz-adv-x="512" d=" M85 448Q68 448 55.5 435.5T43 405V107Q43 89 55.5 76.5T85 64H427Q444 64 456.5 76.5T469 107V405Q469 423 456.5 435.5T427 448H85zM85 363H427V107H85V363zM128 320L183 256L128 192H182L236 256L182 320H128zM256 235V192H384V235H256z" />
    <glyph glyph-name="dashboards"
      unicode="&#xF11F;"
      horiz-adv-x="512" d=" M256 469Q168 469 105.5 406.5T43 256T105.5 105.5T256 43T406.5 105.5T469 256T406.5 406.5T256 469zM256 427Q326 427 376.5 376.5T427 256T376.5 135.5T256 85T135.5 135.5T85 256T135.5 376.5T256 427zM267 407V384Q270 384 276.5 383T286 382L290 403Q287 404 279 405T267 407zM224 403Q221 402 201 395L209 375L228 382zM326 388L261 298L256 299Q238 299 225.5 286.5T213 256T225.5 225.5T256 213T286.5 225.5T299 256Q299 263 295 273L361 363zM162 371Q159 369 153 363T145 356L160 341Q162 344 175 354zM382 335L365 324Q370 316 373 307L393 316L391 322Q389 325 386 329zM119 318Q118 315 115 308L111 297L132 290L139 309zM405 271L384 269V249H405V271zM107 252Q107 247 108 239.5T109 228L130 233Q130 236 129 242.5T128 252H107zM377 211Q376 209 372.5 202.5T367 194L386 183Q388 186 391 193T397 205zM143 194L126 183Q129 173 137 164L153 177Q146 186 143 194z" />
    <glyph glyph-name="delete-attribute"
      unicode="&#xF120;"
      horiz-adv-x="512" d=" M107 469Q89 469 76.5 456.5T64 427V85Q64 68 76.5 55.5T107 43H277Q295 43 307.5 55.5T320 85V130Q305 132 277 145V85H107V427H277V367Q296 379 320 382V427Q320 444 307.5 456.5T277 469H107zM341 363Q297 363 266 332T235 256T266 180T341.5 149T417 180T448 256T417 332T341 363zM277 277H405V235H277V277z" />
    <glyph glyph-name="delete"
      unicode="&#xF121;"
      horiz-adv-x="512" d=" M213 448L192 427H107V384H405V427H320L299 448H213zM128 363V85Q128 68 140.5 55.5T171 43H341Q359 43 371.5 55.5T384 85V363H128zM192 299H235V107H192V299zM277 299H320V107H277V299z" />
    <glyph glyph-name="deploy"
      unicode="&#xF122;"
      horiz-adv-x="512" d=" M256 469Q176 469 120 412.5T64 277Q64 209 106.5 156.5T213 90V134Q167 148 137 187.5T107 277Q107 339 150.5 383T256 427T361.5 383T405 277Q405 227 375 187.5T299 134V90Q363 104 405.5 156.5T448 277Q448 356 392 412.5T256 469zM256 320L171 213H235V43H277V213H341z" />
    <glyph glyph-name="deployment"
      unicode="&#xF123;"
      horiz-adv-x="512" d=" M38 491L50 485V470Q50 469 49 469L44 467L37 463L25 469L13 463L1 469L0 470V485H1L12 491V505H13L25 511L37 505H38V491zM47 484L37 489L27 484L37 479zM23 484L13 489L3 484L13 479zM15 504L25 499L35 504L25 509zM36 478L31 480L26 482V471L36 466V478zM14 502V491L24 486V497zM2 471L12 466V477L2 482V471zM504 231Q504 232 503 232L502 233Q501 233 500.5 233.5T500 235L385 292V425Q385 429 383 431L380 434Q379 435 377 435L260 494Q256 496 252 494L134 435L133 434H131Q127 433 127 425V292L13 235H12Q12 234 11.5 233.5L10.5 232.5T9 232V231L8 230V228L7 226V87Q7 82 13 78L132 18H134Q136 17 137 17L138 18H141L256 76L371 18Q372 17 375 17T379 18L448 52L499 78Q505 82 505 87V229zM137 178L40 226L137 275L234 226zM246 359V242L147 292V409zM256 474L353 425L256 376L159 425zM27 210L127 160V43L27 93V210zM365 147V43L266 93V210L365 162V147zM375 177L278 226L375 275L473 226z" />
    <glyph glyph-name="docker"
      unicode="&#xF124;"
      horiz-adv-x="512" d=" M17 238H347Q363 237 378 242L398 251Q396 252 394 255T388.5 269T387 294.5T393.5 319.5T402 333L405 336Q425 323 435 305Q442 296 442 282L460 284Q469 285 477 283.5T492.5 279.5T503 274L506 272Q492 247 475 238Q467 234 456.5 232T439 230H432L424 212Q418 201 397 173.5T350 125T279 88T182 74T94 94T43.5 135.5T22 182.5T16 222zM115 144Q126 144 133 151T140 169T133 187.5T115 195T96.5 187.5T89 169T96.5 151T115 144zM45 302H94V252H45V302zM106 302H156V252H106V302zM167 302H217V252H167V302zM228 302H278V252H228V302zM290 302H339V252H290V302zM106 364H156V314H106V364zM167 364H217V314H167V364zM228 364H278V314H228V364zM228 427H278V377H228V427z" />
    <glyph glyph-name="download"
      unicode="&#xF125;"
      horiz-adv-x="512" d=" M213 469V299H128L256 128L384 299H299V469H213zM43 85V43H469V85H43z" />
    <glyph glyph-name="edit-property"
      unicode="&#xF126;"
      horiz-adv-x="513" d=" M85 427Q68 427 55.5 414T43 384V128Q43 111 55.5 98T85 85H341L299 128H85V341H427V171L469 128V384Q469 401 456.5 414T427 427H85zM128 299V256H171V299H128zM213 299V256H384V299H213zM128 213V171H171V213H128zM213 213V171H299L341 213H213zM341 171V137L452 25L487 60L375 171H341zM495 51L461 17L476 2Q480 -2 489 2L510 23Q516 30 510 36z" />
    <glyph glyph-name="edit-user"
      unicode="&#xF127;"
      horiz-adv-x="512" d=" M213 469Q178 469 153 444T128 384T153 324T213 299T273.5 324T299 384T273.5 444T213 469zM422 277Q416 277 413 273L390 251L443 198L465 221Q476 230 465 239L431 273Q428 277 422 277zM213 256Q177 256 146 247T97 226T66 201.5T48 180L43 171V128H213L318 233Q272 256 213 256zM373 235L235 96V43H288L427 181z" />
    <glyph glyph-name="edit"
      unicode="&#xF128;"
      horiz-adv-x="512" d=" M128 469Q101 469 82.5 451T64 405V107Q64 79 82.5 61T128 43H213V85H128Q107 85 107 107V405Q107 427 128 427H341Q363 427 363 405V243L405 286V405Q405 433 387 451T341 469H128zM431 256Q427 256 423 252L405 235L448 192L465 209Q469 213 469 217.5T465 224L437 252Q437 256 431 256zM395 224L256 85V43H299L437 181z" />
    <glyph glyph-name="expand-arrow"
      unicode="&#xF129;"
      horiz-adv-x="512" d=" M79 346L49 315L241 123L256 109L271 123L463 315L433 346L256 169z" />
    <glyph glyph-name="expand"
      unicode="&#xF12A;"
      horiz-adv-x="512" d=" M43 469V320H85V397L183 299L213 329L115 427H192V469H43zM320 469V427H397L299 329L329 299L427 397V320H469V469H320zM183 213L85 115V192H43V43H192V85H115L213 183zM329 213L299 183L397 85H320V43H469V192H427V115z" />
    <glyph glyph-name="external-link"
      unicode="&#xF12B;"
      horiz-adv-x="512" d=" M107 448Q89 448 76.5 435.5T64 405V107Q64 89 76.5 76.5T107 64H405Q423 64 435.5 76.5T448 107V235L405 277V107H107V405H277L235 448H107zM299 448L355 391L195 231L231 195L391 355L448 299V448H299z" />
    <glyph glyph-name="fav-selected"
      unicode="&#xF12C;"
      horiz-adv-x="512" d=" M388 64L256 143L124 64L158 213L43 314L196 326L256 469L316 329L469 314L354 213z" />
    <glyph glyph-name="fav"
      unicode="&#xF12D;"
      horiz-adv-x="512" d=" M256 361L277 311L288 288L367 282L326 247L307 230L314 205L326 154L277 179L256 192L190 151L209 228L190 245L149 279L228 286L235 311zM256 469L196 329L43 314L158 213L124 64L256 143L388 64L354 213L469 314L316 326z" />
    <glyph glyph-name="filter"
      unicode="&#xF12E;"
      horiz-adv-x="512" d=" M64 469V427L192 256H320L448 427V469H64zM192 235V107L320 43V235H192z" />
    <glyph glyph-name="fixture"
      unicode="&#xF12F;"
      horiz-adv-x="512" d=" M107 448Q89 448 76.5 435.5T64 405V249L141 224Q166 256 201 256L235 309V320Q235 355 260 380T320 405T380 380T405 320.5T381.5 261T324 235L277 192V181Q277 151 255 129T202.5 107T150 129T128 181V183L64 205V107Q64 89 76.5 76.5T107 64H405Q423 64 435.5 76.5T448 107V405Q448 423 435.5 435.5T405 448H107zM320 384Q294 384 275 365T256 320T275 275T320 256T365 275T384 320T365 365T320 384zM320 363Q338 363 350.5 350.5T363 320T350.5 289.5T320 277T289.5 289.5T277 320T289.5 350.5T320 363zM203 235Q179 235 164 217L211 203Q230 194 224 175Q217 160 203 160Q198 160 196 162L149 177Q151 157 166.5 142.5T204 128T241 143T256 181T240.5 219.5T203 235z" />
    <glyph glyph-name="fixturecat"
      unicode="&#xF130;"
      horiz-adv-x="571.8441558441559" d=" M266.8249021506494 46.0339632207791L505.8623581090909 46.0339632207791C518.0030490597403 46.0339632207791 527.856364051948 55.887278212987 527.856364051948 68.0279691636363L527.856364051948 375.9440536935065C527.856364051948 388.0847446441558 518.0030490597403 397.9380596363636 505.8623581090909 397.9380596363636L65.9822379220779 397.9380596363636C53.841546638961 397.9380596363636 43.9882319127273 388.0847446441558 43.9882319127273 375.9440536935065L43.9882319127273 68.0279691636363C43.9882319127273 55.887278212987 53.841546638961 46.0339632207791 65.9822379220779 46.0339632207791L91.7429374337663 46.0339632207791C94.2399168831169 45.6992149610389 96.7945209350649 45.5263418181818 99.3961917506494 45.5263418181818L259.9524352 45.5263418181818C261.7992723948052 45.5263418181818 264.1420733506494 45.6503881142857 266.8249021506494 46.0339632207791zM505.8621380155844 2.0459513350648L65.9820179615584 2.0459513350648C29.5599440457143 2.0459513350648 0 31.6058956467531 0 68.0279691636363L0 353.9500470857143L0 375.9440536935065L0 441.9260713890909C0 478.3481453049351 29.5599440457143 507.9080893506493 65.9820179615584 507.9080893506493L175.9520482077922 507.9080893506493C212.3741217246754 507.9080893506493 241.9340660363637 478.3481453049351 241.9340660363637 441.9260713890909L505.8621380155844 441.9260713890909C542.2842115324676 441.9260713890909 571.8441558441559 412.3661272103896 571.8441558441559 375.9440536935065L571.8441558441559 68.0279691636363C571.8441558441559 31.6058956467531 542.2842115324676 2.0459513350648 505.8621380155844 2.0459513350648z M318.2363315532468 210.481388051948C311.6381303688312 210.481388051948 307.2393289142858 208.2819869922078 298.4417266701299 201.6837851428571C287.4447233662338 192.8861828987012 280.8465215168832 188.4873821090909 278.6471211220779 199.4843847480519C276.4477207272727 210.481388051948 269.8495188779221 250.0705984831169 267.6501178181819 258.8682007272727C265.4507174233767 265.4664025766234 263.2513170285714 269.8652040311688 256.6531151792208 272.064604425974C256.6531151792208 272.064604425974 217.0639040831169 278.6628062753247 206.0669014441559 283.0616077298701C197.2692992 285.2610081246753 192.8704977454546 289.6598093797402 199.4686995948052 302.8562129454546C206.0669014441559 311.6538153890909 208.2663018389611 316.0526165776623 208.2663018389611 322.6508183605195C208.2663018389611 340.2460231812987 195.0698981402598 353.442426756987 177.4746936519481 353.442426756987C159.8794884987013 353.442426756987 146.6830851324676 340.2460231812987 146.6830851324676 322.6508183605195C146.6830851324676 316.0526165776623 148.8824857267532 309.4544147948052 153.2812866493507 302.8562129454546C162.0788895584416 289.6598093797402 157.6800881038961 285.2610081246753 146.6830851324676 283.0616077298701C133.4866815002598 280.8622066701299 96.0968713309091 272.064604425974 96.0968713309091 272.064604425974C91.6980701223896 272.064604425974 87.2992689205195 265.4664025766234 87.2992689205195 261.067601787013C87.2992689205195 261.067601787013 87.2992689205195 245.6717976935065 87.2992689205195 203.8831862025974C87.2992689205195 203.8831862025974 87.2992689205195 203.8831862025974 87.2992689205195 201.6837851428571C89.4986695214546 190.6867825038961 98.2962719251948 197.2849843532467 107.0938743023377 203.8831862025974C113.6920760851948 208.2819869922078 120.2902779345455 212.6807884467533 126.8884797174026 212.6807884467533C144.4836845381818 212.6807884467533 157.6800881038961 199.4843847480519 157.6800881038961 181.8891802597402C157.6800881038961 164.2939751064935 144.4836845381818 151.0975714077922 126.8884797174026 151.0975714077922C118.0908773402598 151.0975714077922 113.6920760851948 153.2969724675325 107.0938743023377 159.8951743168831C100.4956725194805 166.4933755012987 89.4986695214546 173.0915773506494 87.2992689205195 162.0945747116883L87.2992689205195 159.8951743168831C87.2992689205195 115.9071617662337 87.2992689205195 100.5113576727272 87.2992689205195 100.5113576727272C87.2992689205195 93.9131558233765 91.6980701223896 89.5143550337662 98.2962719251948 89.5143550337662L258.8525155740261 89.5143550337662C265.4507174233767 89.5143550337662 267.6501178181819 93.9131558233765 269.8495188779221 100.5113576727272C269.8495188779221 100.5113576727272 278.6471211220779 151.0975714077922 280.8465215168832 162.0945747116883C283.0459225766234 173.0915773506494 289.644123761039 168.6927765610389 300.6411270649351 159.8951743168831C307.2393289142858 155.4963728623376 313.8375307636364 151.0975714077922 320.435732612987 151.0975714077922C338.0309371012987 151.0975714077922 351.2273408000001 164.2939751064935 351.2273408000001 181.8891802597402C349.0279404051949 197.2849843532467 335.8315367064935 210.481388051948 318.2363315532468 210.481388051948z" />
    <glyph glyph-name="fixturenew"
      unicode="&#xF131;"
      horiz-adv-x="512" d=" M413.0133333333334 240.64C402.7733333333334 240.64 395.9466666666667 237.2266666666667 382.2933333333334 226.9866666666666C365.2266666666667 213.3333333333333 354.9866666666667 206.5066666666667 351.5733333333334 223.5733333333333C348.1600000000001 240.64 337.92 302.08 334.5066666666667 315.7333333333334C331.0933333333334 325.9733333333334 327.68 332.8 317.44 336.2133333333333C317.44 336.2133333333333 256 346.4533333333333 238.9333333333334 353.28C225.28 356.6933333333334 218.4533333333334 363.52 228.6933333333334 384C238.9333333333334 397.6533333333333 242.3466666666667 404.48 242.3466666666667 414.7200000000001C242.3466666666667 442.0266666666667 221.8666666666667 462.5066666666667 194.56 462.5066666666667C167.2533333333333 462.5066666666667 146.7733333333334 442.0266666666667 146.7733333333334 414.7200000000001C146.7733333333334 404.48 150.1866666666667 394.24 157.0133333333334 384C170.6666666666667 363.52 163.84 356.6933333333334 146.7733333333334 353.28C126.2933333333333 349.8666666666667 68.2666666666667 336.2133333333333 68.2666666666667 336.2133333333333C61.44 336.2133333333333 54.6133333333333 325.9733333333334 54.6133333333333 319.1466666666667L54.6133333333333 230.4C54.6133333333333 230.4 54.6133333333333 230.4 54.6133333333333 226.9866666666666C58.0266666666667 209.92 71.68 220.16 85.3333333333333 230.4C95.5733333333333 237.2266666666667 105.8133333333334 244.0533333333334 116.0533333333334 244.0533333333334C143.36 244.0533333333334 163.84 223.5733333333333 163.84 196.2666666666667C163.84 168.96 143.36 148.48 116.0533333333334 148.48C102.4 148.48 95.5733333333333 151.8933333333333 85.3333333333333 162.1333333333333C75.0933333333333 172.3733333333333 58.0266666666667 182.6133333333333 54.6133333333333 165.5466666666666L54.6133333333333 162.1333333333333L54.6133333333333 69.9733333333333C54.6133333333333 59.7333333333333 61.44 52.9066666666666 71.68 52.9066666666666L320.8533333333334 52.9066666666666C331.0933333333334 52.9066666666666 334.5066666666667 59.7333333333333 337.92 69.9733333333333C337.92 69.9733333333333 351.5733333333334 148.48 354.9866666666667 165.5466666666666C358.4000000000001 182.6133333333333 368.6400000000001 175.7866666666666 385.7066666666667 162.1333333333333C395.9466666666667 155.3066666666667 406.1866666666667 148.48 416.4266666666667 148.48C443.7333333333334 148.48 464.2133333333334 168.96 464.2133333333334 196.2666666666667C460.8 220.16 440.3200000000001 240.64 413.0133333333334 240.64" />
    <glyph glyph-name="folder-lock"
      unicode="&#xF132;"
      horiz-adv-x="512" d=" M312 374H59Q51 374 45 368T39 354V79Q39 71 45 65T59 59H453Q461 59 467 65T473 79V354Q473 362 467 368T453 374H342Q337 375 327 375T312 374zM453 20H59Q34 20 17 37T0 79V414Q0 438 17 455.5T59 473H158Q182 473 199.5 455.5T217 414H453Q478 414 495 396.5T512 354V79Q512 54 495 37T453 20zM396 237H386V277Q386 292 378 304Q364 336 328 336T276 304Q268 292 268 277V237H258Q247 237 238 229.5T229 212V125Q229 115 238 107T258 99H396Q408 99 417 107T426 125V212Q426 222 417 229.5T396 237zM308 277Q308 283 310 289Q317 296 327 296Q347 296 347 277V237H308V277zM337 162V139Q337 129 327 129T317 139V162Q308 165 308 178Q308 186 313 192T327 198Q347 198 347 178Q347 165 337 162z" />
    <glyph glyph-name="git"
      unicode="&#xF133;"
      horiz-adv-x="512" d=" M479 286L286 479Q273 492 256 492T226 479L188 441L235 394Q263 409 285 387T291 338L338 291Q365 307 387 285Q399 273 399 256T387 227T358 215T329 227Q308 250 323 277L277 323Q272 320 266 319V193Q280 190 288.5 179T297 154Q297 137 285 125T256 113T227 125T215 154Q215 168 223.5 179T246 193V319Q233 323 227 329Q206 352 221 379L173 426L33 286Q20 273 20 256T33 226L226 33Q239 20 256 20T286 33L479 226Q492 239 492 256T479 286z" />
    <glyph glyph-name="github"
      unicode="&#xF134;"
      horiz-adv-x="512" d=" M256 502Q155 502 82.5 429.5T10 256Q10 179 54 116.5T167 27Q184 31 184 47V92H158Q127 92 114 116L108 130Q97 155 88 161Q81 166 84 175T99 183Q117 181 134 159Q146 142 161 142H164Q196 142 200 146Q204 154 208 157Q112 176 112 259Q112 289 128 312Q114 367 134 385L137 388H141Q171 388 200 368Q256 388 312 368Q339 388 371 388H375L378 385Q398 366 384 312Q400 286 400 259Q400 176 305 157Q329 132 329 96V46Q329 29 346 26Q415 53 458.5 116T502 256Q502 357 429.5 429.5T256 502z" />
    <glyph glyph-name="help"
      unicode="&#xF135;"
      horiz-adv-x="512" d=" M256 469Q168 469 105.5 406.5T43 256T105.5 105.5T256 43T406.5 105.5T469 256T406.5 406.5T256 469zM256 427Q326 427 376.5 376.5T427 256T376.5 135.5T256 85T135.5 135.5T85 256T135.5 376.5T256 427zM254 363Q223 363 207.5 347T192 315V299H235Q235 331 256 331T277 303Q277 282 256 262T235 213H277Q277 230 298.5 252.5T320 303Q320 324 305 343.5T254 363zM235 192V149H277V192H235z" />
    <glyph glyph-name="hosts"
      unicode="&#xF136;"
      horiz-adv-x="512" d=" M245 469L181 433L245 396L309 433zM171 415V341L235 305V377zM320 415L256 377V305L320 341V415zM149 381L64 349V268L107 293V320L149 336V381zM341 381V336L384 320V293L427 268V349zM117 271L53 235L117 198L181 235zM373 271L309 235L373 198L437 235zM43 216V143L107 107V179zM192 216L128 179V107L192 143V216zM299 216V143L363 107V179zM448 216L384 179V107L448 143V216zM188 119L143 94L245 43L347 94L303 119L245 91z" />
    <glyph glyph-name="import"
      unicode="&#xF137;"
      horiz-adv-x="512" d=" M85 469Q68 469 55.5 456.5T43 427V85Q43 68 55.5 55.5T85 43H299Q316 43 328.5 55.5T341 85V171H299V85H85V427H299V341H341V427Q341 444 328.5 456.5T299 469H85zM171 256L256 192V235H469V277H256V320z" />
    <glyph glyph-name="info"
      unicode="&#xF138;"
      horiz-adv-x="512" d=" M256 448Q176 448 120 392T64 256T120 120T256 64T392 120T448 256T392 392T256 448zM276 149Q276 143 269 143H243Q236 143 236 149V273Q236 280 243 280H269Q276 280 276 273V149zM256 308Q246 308 239.5 314.5T233 331T239.5 347.5T256 354T272.5 347.5T279 331T272.5 314.5T256 308z" />
    <glyph glyph-name="integrations"
      unicode="&#xF139;"
      horiz-adv-x="512" d=" M107 448Q89 448 76.5 435.5T64 405V107Q64 89 76.5 76.5T107 64H405Q414 64 416 66L361 121Q347 117 341 117Q319 117 303.5 132.5T288 171T303 209T341 224T379.5 208.5T395 171Q395 165 391 151L446 96Q446 98 447 101T448 107V405Q448 423 435.5 435.5T405 448H307L220 361Q224 347 224 341Q224 318 209 303T171 288T132.5 303.5T117 341.5T132.5 379.5T171 395Q178 395 190 391L247 448H107zM341 395Q364 395 379.5 379.5T395 341.5T379.5 303.5T341 288Q334 288 322 292L220 190Q224 178 224 171Q224 148 208.5 132.5T170.5 117T132.5 132.5T117 170.5T132.5 208.5T171 224Q178 224 190 220L292 322Q288 334 288 341Q288 364 303.5 379.5T341 395zM171 363Q162 363 155.5 356.5T149 341.5T155.5 326.5T170.5 320T185.5 326.5T192 341.5T185.5 356.5T171 363zM341 363Q333 363 326.5 356.5T320 341.5T326.5 326.5T341.5 320T356.5 326.5T363 341.5T356.5 356.5T341 363zM171 192Q162 192 155.5 185.5T149 170.5T155.5 155.5T170.5 149T185.5 155.5T192 170.5T185.5 185.5T171 192zM341 192Q333 192 326.5 185.5T320 170.5T326.5 155.5T341.5 149T356.5 155.5T363 170.5T356.5 185.5T341 192z" />
    <glyph glyph-name="intlogo"
      unicode="&#xF13A;"
      horiz-adv-x="512" d=" M66 448H448Q456 448 462 442T468 428T462 414T448 408H66Q58 408 52 414T46 428T52 442T66 448zM66 377H448Q456 377 462 371.5T468 358T462 344T448 338H66Q58 338 52 344T46 358T52 371.5T66 377zM66 308H448Q456 308 462 302T468 288T462 274T448 268H66Q58 268 52 274T46 288T52 302T66 308zM66 237H448Q456 237 462 231T468 217T462 203.5T448 198H66Q58 198 52 203.5T46 217T52 231T66 237zM66 168H448Q456 168 462 162T468 148T462 134T448 128H66Q58 128 52 134T46 148T52 162T66 168zM66 97H448Q456 97 462 91T468 77T462 63T448 57H66Q58 57 52 63T46 77T52 91T66 97z" />
    <glyph glyph-name="jira"
      unicode="&#xF13B;"
      horiz-adv-x="512" d=" M337 275Q337 261 326 261H298V296V295H326Q337 295 337 285V275zM427 317H394L364 214L344 242Q358 247 358 266V295Q358 317 337 317H274V203H298V241H321L345 203H372H371H384L410 292L424 247H410L401 226H430L437 203H461zM217 227V317H193V233Q193 218 185 218L178 216L183 196Q200 196 208.5 204T217 220V227zM134 259Q150 274 158 288.5T166 310L167 317L163 319Q159 316 153 314T144 312H140Q135 291 110 270Q83 297 80 312Q67 312 57 319Q53 322 53 317Q51 293 86 260Q126 220 122 203H147Q149 229 128 253zM234 203H258V317H234V203zM106 226Q96 238 87 247Q80 237 76.5 225.5T73 208V201H98Q96 213 106 226zM97 310H122Q125 310 125 306.5T121 299L114 290L110 287Q100 297 96 305Q94 310 97 310zM154 335Q154 325 143 325T132 335.5T143 346T154 335zM90 335Q90 325 79 325T68 335.5T79 346T90 335zM122 344Q122 333 111.5 333T101 344T111.5 355T122 344V344z" />
    <glyph glyph-name="job"
      unicode="&#xF13C;"
      horiz-adv-x="512" d=" M361 471Q355 473 355 467L347 441Q338 438 327 433L303 448Q299 452 297 447L269 413Q266 410 269 406L289 386Q287 378 287 375Q285 369 285 364L261 352Q256 350 258 345L273 304Q274 301 280 301L307 308Q315 300 324 294L322 267Q322 261 327 261L370 254Q375 254 376 258L383 285Q392 286 404 293L427 277Q431 276 434 279L462 312Q465 315 461 319L442 339Q442 341 443 344.5T444 350Q445 354 445 361L470 373Q474 377 473 380L457 421Q455 426 451 424L424 417Q419 423 407 431L408 459Q408 464 404 465zM363 405H372Q389 402 399.5 387.5T407.5 356T390.5 328.5T358.5 320.5T331 337T323 369Q326 385 337.5 395T363 405zM155 320Q148 320 148 314L144 278Q132 273 119 263L86 278Q80 280 77 275L49 226Q45 221 51 217L80 196Q79 191 79 181T80 167L51 146Q45 142 49 137L77 87Q81 81 86 85L119 99Q133 89 144 85L148 49Q148 43 155 43H211Q218 43 219 49L222 85Q236 90 247 99L280 85Q282 83 285 84T289 87L317 137Q321 142 315 146L286 167Q287 171 287 181T286 196L315 217Q321 221 317 226L289 275Q287 280 280 278L247 263Q238 271 222 278L219 314Q218 320 211 320H155zM183 237Q206 237 222.5 220.5T239 181T222.5 142T183 126T144 142T128 181T144 220.5T183 237z" />
    <glyph glyph-name="label"
      unicode="&#xF13D;"
      horiz-adv-x="512" d=" M43 341V171Q43 153 55.5 140.5T85 128H324Q342 128 354 141L469 256L354 371Q342 384 324 384H85Q68 384 55.5 371.5T43 341z" />
    <glyph glyph-name="launcher"
      unicode="&#xF13E;"
      horiz-adv-x="512" d=" M469 469Q455 469 432.5 468T364 456.5T299 427Q277 405 234 346T160 240L128 192L192 128Q377 249 427 299Q446 318 456.5 360.5T468 436zM192 128L213 43Q229 52 240.5 62.5T259 84.5T270 105T276 126L278 144V160L277 171zM128 192L171 277L160 278H144L126 276Q114 274 105 270T84.5 259T62.5 240.5T43 213zM360 403Q377 403 390 390T403 360T390 330T360 317T330 330T317 360T330 390T360 403zM107 149Q79 140 63 113.5T46 66L44 44L53 45Q59 45 74.5 48T103 57T129.5 76T149 107L85 85z" />
    <glyph glyph-name="lock"
      unicode="&#xF13F;"
      horiz-adv-x="512" d=" M256 491Q203 491 165.5 453.5T128 363V341Q111 341 98 328.5T85 299V85Q85 68 98 55.5T128 43H384Q401 43 414 55.5T427 85V299Q427 316 414 328.5T384 341V363Q384 416 346.5 453.5T256 491zM256 448Q293 448 317 423.5T341 363V341H171V363Q171 399 195 423.5T256 448zM256 235Q273 235 286 222T299 192T286 162T256 149T226 162T213 192T226 222T256 235z" />
    <glyph glyph-name="logout"
      unicode="&#xF140;"
      horiz-adv-x="512" d=" M128 469Q110 469 97.5 456.5T85 427V85Q85 68 97.5 55.5T128 43H384Q402 43 414.5 55.5T427 85V187L384 155V85H128V427H384V357L427 325V427Q427 444 414.5 456.5T384 469H128zM341 336V277H235V235H341V176L448 256z" />
    <glyph glyph-name="manage"
      unicode="&#xF141;"
      horiz-adv-x="512" d=" M128 469Q125 468 110 454T79.5 418.5T64 383T78 350Q92 335 120 319Q121 318 124 316.5T128 314V85Q128 68 140.5 55.5T170.5 43T200.5 55.5T213 85V314L221 319Q222 319 229.5 323T248 335T265 351Q277 368 277 384Q277 397 261.5 418.5T231 454T213 469V405Q194 393 171 393Q160 393 149.5 396T134 402L128 405V469zM363 469L341 405L363 384V235H341Q333 235 326.5 228.5T320 213.5T326.5 198.5T341 192V85Q341 68 354 55.5T384 43T414 55.5T427 85V192Q435 192 441.5 198.5T448 213.5T441.5 228.5T427 235H405V384L427 405L405 469H363zM487 317Q486 316 484 315L481 312z" />
    <glyph glyph-name="menu-2"
      unicode="&#xF142;"
      horiz-adv-x="512" d=" M256 448Q238 448 225.5 435.5T213 405.5T225.5 375.5T256 363T286.5 375.5T299 405.5T286.5 435.5T256 448zM256 299Q238 299 225.5 286.5T213 256T225.5 225.5T256 213T286.5 225.5T299 256T286.5 286.5T256 299zM256 149Q238 149 225.5 136.5T213 106.5T225.5 76.5T256 64T286.5 76.5T299 106.5T286.5 136.5T256 149z" />
    <glyph glyph-name="metrics"
      unicode="&#xF143;"
      horiz-adv-x="512" d=" M85 469V107H384V469H85zM128 427H341V149H128V427zM405 405V85H149V43H448V405H405zM213 341L241 313L225 297L211 312L160 261L190 230L211 251L227 236L241 252L271 283L299 256V341H213z" />
    <glyph glyph-name="more"
      unicode="&#xF144;"
      horiz-adv-x="512" d=" M107 299Q89 299 76.5 286.5T64 256T76.5 225.5T106.5 213T136.5 225.5T149 256T136.5 286.5T107 299zM256 299Q238 299 225.5 286.5T213 256T225.5 225.5T256 213T286.5 225.5T299 256T286.5 286.5T256 299zM405 299Q388 299 375.5 286.5T363 256T375.5 225.5T405.5 213T435.5 225.5T448 256T435.5 286.5T405 299z" />
    <glyph glyph-name="new"
      unicode="&#xF145;"
      horiz-adv-x="512" d=" M22 497V495H17V490H15V495H10V497H15V502H17V497H22zM29 496Q29 483 16 483T3 496T16 509T29 496zM5 496Q5 485 16 485T27 496T16 507T5 496zM256 459Q172 459 112.5 399.5T53 256T112.5 112.5T256 53T399.5 112.5T459 256T399.5 399.5T256 459zM256 428Q327 428 377.5 377.5T428 256T377.5 134.5T256 84T134.5 134.5T84 256T134.5 377.5T256 428zM240 350V272H162V240H240V162H272V240H350V272H272V350H240z" />
    <glyph glyph-name="nonmarkingreturn"
      unicode="&#xF146;"
      horiz-adv-x="512" d="" />
    <glyph glyph-name="notification"
      unicode="&#xF147;"
      horiz-adv-x="512" d=" M256 469Q243 469 233.5 459.5T224 437V423Q173 412 140 371T107 277V181L64 132V107H448V132L405 181V277Q405 330 372 371T288 423V437Q288 450 278.5 459.5T256 469zM213 85Q213 68 226 55.5T256 43T286 55.5T299 85H213z" />
    <glyph glyph-name="pencil"
      unicode="&#xF148;"
      horiz-adv-x="512" d=" M393 469Q384 469 377 463L341 427L427 341L463 377Q469 384 469 393T463 407L407 463Q401 469 393 469zM320 403L43 128V43H128L403 320z" />
    <glyph glyph-name="play-2"
      unicode="&#xF149;"
      horiz-adv-x="512" d=" M256 20Q158 20 89 89T20 256T89 423T256 492T423 423T492 256T423 89T256 20zM256 61Q336 61 393.5 118.5T451 256T393.5 393.5T256 451T118.5 393.5T61 256T118.5 118.5T256 61zM190 358V154L364 256z" />
    <glyph glyph-name="play"
      unicode="&#xF14A;"
      horiz-adv-x="512" d=" M149 405V107L405 256z" />
    <glyph glyph-name="pod"
      unicode="&#xF14B;"
      horiz-adv-x="512" d=" M460 380L459 381Q458 381 458 381.5T457 382L265 467Q256 472 247 467L55 382Q54 382 54 381.5T53 381L52 380Q40 372 43 359V149Q43 135 55 130L247 44H248Q250 44 251 43H261Q262 44 264 44H265L457 130Q469 135 469 149V359Q472 372 460 380zM256 425L395 363L256 301L117 363zM85 330L153 300L235 263V97L85 163V330zM277 97V263L359 300L427 330V163z" />
    <glyph glyph-name="policy"
      unicode="&#xF14C;"
      horiz-adv-x="512" d=" M405 469H316Q301 512 256 512T196 469H107Q89 469 76.5 456.5T64 427V85Q64 68 76.5 55.5T107 43H405Q423 43 435.5 55.5T448 85V427Q448 444 435.5 456.5T405 469zM256 469Q277 469 277 448T256 427T235 448T256 469zM405 85H107V427H149V384H363V427H405V85z" />
    <glyph glyph-name="push"
      unicode="&#xF14D;"
      horiz-adv-x="512" d=" M256 469L176 363H235V171H277V363H336zM43 341V85Q43 68 55.5 55.5T85 43H427Q444 43 456.5 55.5T469 85V341H427V85H85V341H43z" />
    <glyph glyph-name="report-card"
      unicode="&#xF14E;"
      horiz-adv-x="512" d=" M43 448V85H469V448H43zM85 405H427V128H85V405zM384 363L341 320L320 341L299 320L341 277L405 341zM107 341V299H277V341H107zM384 256L341 213L320 235L299 213L341 171L405 235zM107 235V192H277V235H107z" />
    <glyph glyph-name="resubmit-failed"
      unicode="&#xF14F;"
      horiz-adv-x="512" d=" M255 481Q238 481 230 480L235 439Q242 440 255 440Q332 440 386 386.5T440 256T386 125.5T255 72Q242 72 235 73L230 32Q238 31 255 31Q349 31 415 97T481 256T415 415T255 481zM181 468Q155 460 135 447L157 412Q176 423 194 430zM96 415Q79 399 64 376L99 354Q109 371 124 386zM236 369V213L199 250L170 221L256 135L342 221L313 250L276 213V369H236zM42 330Q34 306 31 281L72 277Q74 298 81 317zM72 235L31 231Q34 206 42 182L81 195Q73 215 72 235zM99 158L64 136Q77 116 96 97L125 126Q110 140 99 158zM157 100L135 65Q156 52 181 43L194 82Q176 89 157 100z" />
    <glyph glyph-name="retry"
      unicode="&#xF150;"
      horiz-adv-x="512" d=" M256 448Q176 448 120 392T64 256H107Q107 318 150.5 361.5T255.5 405T361 361L299 299H448V448L391 391Q336 448 256 448zM405 256Q405 194 361.5 150.5T256.5 107T151 151L213 213H64V64L121 121Q176 64 256 64T392 120T448 256H405z" />
    <glyph glyph-name="right-navigation-toolbar"
      unicode="&#xF151;"
      horiz-adv-x="512" d=" M85 448Q68 448 55.5 435.5T43 405V107Q43 89 55.5 76.5T85 64H427Q444 64 456.5 76.5T469 107V405Q469 423 456.5 435.5T427 448H85zM85 405H235V107H85V405zM309 405Q322 405 331.5 395.5T341 373T331.5 350.5T309 341T286.5 350.5T277 373T286.5 395.5T309 405zM395 405Q408 405 417.5 395.5T427 373T417.5 350.5T395 341T372.5 350.5T363 373T372.5 395.5T395 405zM277 299H427V235H277V299z" />
    <glyph glyph-name="safe"
      unicode="&#xF152;"
      horiz-adv-x="512" d=" M43 427V85H64V64H128V85H363V64H427V85H448V149H469V192H448V320H469V363H448V427H43zM85 384H405V128H85V384zM128 341Q119 341 113 335T107 320V192Q107 183 113 177T128 171T143 177T149 192V320Q149 329 143 335T128 341zM277 341Q242 341 217 316T192 256T217 196T277 171T337.5 196T363 256T337.5 316T277 341zM277 299Q295 299 307.5 286.5T320 256T307.5 225.5T277.5 213T247.5 225.5T235 256T247.5 286.5T277 299z" />
    <glyph glyph-name="sales-channels"
      unicode="&#xF153;"
      horiz-adv-x="512" d=" M256 491Q243 491 233.5 481.5T224 458T235 435V384H277V435Q288 444 288 458T278.5 481.5T256 491zM53 405Q40 405 30.5 395.5T21 373T30.5 350.5T53 341L59 342L128 317V320Q128 341 141 359L85 378Q84 390 74.5 397.5T53 405zM459 405Q447 405 437.5 397.5T427 378L371 359Q384 341 384 320V317L453 342L459 341Q472 341 481.5 350.5T491 373T481.5 395.5T459 405zM192 363Q175 363 162 350T149 320V192Q149 175 162 162T192 149H320Q337 149 350 162T363 192V320Q363 337 350 350T320 363H192zM235 320H277Q287 320 293 314T299 299Q299 277 277 277H235Q213 277 213 299Q213 308 219 314T235 320zM128 194L59 170L53 171Q40 171 30.5 161.5T21 139T30.5 116.5T52.5 107T74.5 114.5T85 134L141 153Q128 171 128 192V194zM384 194V192Q384 171 371 153L427 134Q428 122 437.5 114.5T459.5 107T481.5 116.5T491 139T481.5 161.5T459 171L453 170zM235 128V77Q224 68 224 54T233.5 30.5T256 21T278.5 30.5T288 54T277 77V128H235z" />
    <glyph glyph-name="sample"
      unicode="&#xF154;"
      horiz-adv-x="512" d=" M5 503H8V505H14V503H18V505H24V503H28V487H4V503H5zM10 502V501H6V489H26V501H22V503H20V501H12V503H10V502zM130 398V366H67V114H445V366H382V398H287V366H225V398H130zM162 366H193V335H319V366H350V335H413V146H99V335H162V366z" />
    <glyph glyph-name="scale"
      unicode="&#xF155;"
      horiz-adv-x="512" d=" M192 448Q112 448 56 392T0 256T56 120T192 64T328 120T384 256T328 392T192 448zM307 441Q353 411 379 362T405 256T379 150T307 71Q369 89 408.5 139.5T448 256T408.5 372.5T307 441zM371 441Q417 411 443 362T469 256T443 150T371 71Q433 89 472.5 139.5T512 256T472.5 372.5T371 441zM213 341V171H171V277H128V309Q147 311 168.5 319T202 334z" />
    <glyph glyph-name="search"
      unicode="&#xF156;"
      horiz-adv-x="512" d=" M192 469Q130 469 86.5 425.5T43 320T86.5 214.5T192 171Q246 171 288 205L299 195V177L433 43L469 79L335 213H316L306 223Q341 264 341 320Q341 382 297.5 425.5T192 469zM192 427Q237 427 268 396T299 320T268 244T192 213T116 244T85 320T116 396T192 427z" />
    <glyph glyph-name="slack-02"
      unicode="&#xF157;"
      horiz-adv-x="512" d=" M267 278L277 246L245 235L234 267zM256 403Q195 403 152 360T109 256T152 152T256 109T360 152T403 256T360 360T256 403zM331 233L315 227L321 211Q325 196 311 192T293 202L287 218L255 207L260 191Q265 177 251 172.5T233 181L227 197L212 193Q198 188 193.5 202T203 220L218 225L207 257L191 251Q177 247 172.5 260.5T182 279L197 284L192 299Q187 312 200.5 317.5T220 309L225 294L258 305L252 320Q249 334 261 339Q275 342 280 330L285 314L301 319Q315 324 319.5 310T310 292L295 286L306 255L321 260Q335 265 339.5 251T331 233z" />
    <glyph glyph-name="stop-property"
      unicode="&#xF158;"
      horiz-adv-x="512" d=" M85 469Q68 469 55.5 456.5T43 427V171Q43 153 55.5 140.5T85 128H235V171H85V384H405V277H448V427Q448 444 435.5 456.5T405 469H85zM128 341V299H171V341H128zM192 341V299H363V341H192zM128 256V213H171V256H128zM192 256V213H235V256H192zM256 256V43H469V256H256zM299 213H427V85H299V213z" />
    <glyph glyph-name="stop"
      unicode="&#xF159;"
      horiz-adv-x="512" d=" M256 20Q158 20 89 89T20 256T89 423T256 492T423 423T492 256T423 89T256 20zM256 61Q336 61 393.5 118.5T451 256T393.5 393.5T256 451T118.5 393.5T61 256T118.5 118.5T256 61zM154 358V154H358V358H154z" />
    <glyph glyph-name="storageclass"
      unicode="&#xF15A;"
      horiz-adv-x="512" d=" M300 361Q295 368 295 374V434Q295 469 281 473H138Q122 473 110 461.5T98 433V79Q98 62 110 50.5T138 39H374Q390 39 402 50.5T414 79V335Q414 348 404 351T374 354H315Q310 354 304 358L303 361H300zM385 444Q389 439 399 429Q420 408 429 398T445.5 376T453 354V79Q453 46 430 23T374 0H138Q105 0 82 23T59 79V433Q59 466 82 489T138 512H295Q318 512 370 458Q380 448 385 444zM374 191V220L339 226Q337 234 329 250L349 279L329 299L300 277Q289 284 277 287L271 322H241L237 287Q220 283 214 277L185 297L163 277L183 248Q179 242 175 226L140 220V191L175 185Q178 169 185 162L165 132L186 111L216 130L227 126Q235 122 239 121L241 87H271L277 123Q281 124 290 128L300 132L329 113L351 134L329 162Q338 179 339 185zM257 166Q240 166 229 177T218 204.5T229.5 232.5T257 244T284.5 232.5T296 205T284.5 177.5T257 166z" />
    <glyph glyph-name="storageprovider"
      unicode="&#xF15B;"
      horiz-adv-x="512" d=" M213 469Q147 469 99 449Q75 438 61 424Q43 408 43 384V128Q43 89 94 66T213 43Q235 43 269 47Q254 58 239 87Q230 85 213 85Q176 85 145.5 93T100 110.5T85 128V156Q138 128 213 128H226L225 138Q224 145 224 149Q224 164 226 171H213Q176 171 145.5 178.5T100 195.5T85 213V241Q138 213 213 213Q231 213 241 215Q256 245 288 267Q255 256 213 256Q176 256 145.5 264T100 281.5T85 299V327Q87 325 91.5 323T99 319Q147 299 214 299T327 319L334 323L341 327V299Q341 294 331 284Q351 288 363 288Q378 288 384 286V384Q384 406 366 424Q352 438 327 449Q281 469 213 469zM213 427Q268 427 311 409Q329 401 336 394Q341 389 341 384T336 374Q329 367 311 359Q268 341 212.5 341T116 359Q96 367 90.5 373.5T85 384T90.5 394.5T116 409Q157 427 213 427zM341 256Q337 256 337 252L335 224Q326 221 316 213L290 224Q288 225 286 224.5T284 222L263 183Q262 182 262.5 179.5T265 177L288 160V139L265 121Q256 119 256 115L277 77Q282 72 284 75L309 85Q324 76 329 75L331 47Q331 43 335 43H377Q382 43 382 47L384 75Q392 78 403 85L429 75Q430 74 432.5 74.5T435 77L457 115Q458 116 457.5 118.5T455 121L439 139V160L463 177Q465 179 465 183L444 222Q440 226 437 224L409 213Q399 221 391 224L388 252Q388 256 384 256H341zM361 192Q378 192 390.5 179.5T403 149.5T390.5 119.5T360.5 107T330.5 119.5T318 149.5T330.5 179.5T361 192z" />
    <glyph glyph-name="tag"
      unicode="&#xF15C;"
      horiz-adv-x="512" d=" M243 55L469 279V469H282L58 245Q45 232 45 214T58 183L183 58Q194 43 212 42.5T243 55zM395 427Q408 427 417.5 417.5T427 395T417.5 372.5T395 363T372.5 372.5T363 395T372.5 417.5T395 427z" />
    <glyph glyph-name="terminate"
      unicode="&#xF15D;"
      horiz-adv-x="512" d=" M22 500Q22 510 12 510Q8 510 6 508L20 494Q22 496 22 500zM24 500Q24 488 12 488T0 500T12 512T24 500zM2 500Q2 490 12 490Q16 490 18 492L4 506Q2 504 2 500zM256 504Q153 504 80.5 431.5T8 256T80.5 80.5T256 8T431.5 80.5T504 256T431.5 431.5T256 504zM256 463Q342 463 402.5 402.5T463 256Q463 183 416 125L125 416Q183 463 256 463zM96 387L387 96Q329 49 256 49Q170 49 109.5 109.5T49 256Q49 329 96 387z" />
    <glyph glyph-name="test"
      unicode="&#xF15E;"
      horiz-adv-x="512" d=" M277 469Q269 469 262.5 463T256 448T262.5 433T277.5 427T292.5 433T299 448T292.5 463T277 469zM277 427H149V384H171V325L70 124Q65 108 64 90T77.5 57.5T120 43H392Q425 43 441 69.5T442 124L341 325V384H363V427H277zM213 384H299V320Q299 314 301 311L349 213H205L151 105Q143 89 159 85H120Q111 85 107.5 91.5T108 105L211 311Q213 314 213 320V384zM245 341Q232 341 222.5 331.5T213 309T222.5 286.5T245 277T267.5 286.5T277 309T267.5 331.5T245 341zM256 192Q265 192 271 185.5T277 170.5T271 155.5T256 149T241 155.5T235 170.5T241 185.5T256 192zM331 149Q344 149 353.5 139.5T363 117T353.5 94.5T331 85T308.5 94.5T299 117T308.5 139.5T331 149z" />
    <glyph glyph-name="timeline"
      unicode="&#xF15F;"
      horiz-adv-x="512" d=" M107 469V427H85Q77 427 70.5 420.5T64 405V384Q64 375 70.5 369T85 363H171Q179 363 185.5 369T192 384V405Q192 414 185.5 420.5T171 427H149V469H107zM235 469V171H213Q205 171 198.5 164.5T192 149V128Q192 119 198.5 113T213 107H299Q307 107 313.5 113T320 128V149Q320 158 313.5 164.5T299 171H277V469H235zM363 469V320H341Q333 320 326.5 313.5T320 299V277Q320 269 326.5 262.5T341 256H427Q435 256 441.5 262.5T448 277V299Q448 307 441.5 313.5T427 320H405V469H363zM107 341V43H149V341H107zM363 235V43H405V235H363zM235 85V43H277V85H235z" />
    <glyph glyph-name="user-groups"
      unicode="&#xF160;"
      horiz-adv-x="512" d=" M192 427Q174 427 161.5 414.5T149 384T161.5 353.5T192 341T222.5 353.5T235 384T222.5 414.5T192 427zM320 427Q302 427 289.5 414.5T277 384T289.5 353.5T320 341T350.5 353.5T363 384T350.5 414.5T320 427zM128 320Q111 320 98 307.5T85 277.5T98 247.5T128 235T158 247.5T171 277.5T158 307.5T128 320zM384 320Q367 320 354 307.5T341 277.5T354 247.5T384 235T414 247.5T427 277.5T414 307.5T384 320zM256 256Q239 256 226 243.5T213 213.5T226 183.5T256 171T286 183.5T299 213.5T286 243.5T256 256zM128 213Q102 213 83.5 201.5T59 178L53 167V149H203V167Q201 172 196.5 179.5T173 200T128 213zM384 213Q358 213 339.5 201.5T315 178L309 167V149H459V167Q457 172 452.5 179.5T429 200T384 213zM256 149Q228 149 206.5 137.5T178 114L171 103V85H341V103Q339 108 333.5 115.5T306 136T256 149z" />
    <glyph glyph-name="user-profile"
      unicode="&#xF161;"
      horiz-adv-x="512" d=" M256 469Q168 469 105.5 406.5T43 256T105.5 105.5T256 43T406.5 105.5T469 256T406.5 406.5T256 469zM256 427Q327 427 377 377T427 256T377 135T256 85T135 135T85 256T135 377T256 427zM256 397Q227 397 209.5 377T192 328V298L199 293Q216 256 256 256T314 293L320 299V328Q320 376 279 385L272 397H256zM255 213Q179 213 139 161Q183 107 254.5 107T370 161Q328 213 255 213z" />
    <glyph glyph-name="user"
      unicode="&#xF162;"
      horiz-adv-x="512" d=" M256 427Q221 427 196 401.5T171 341T196 281T256 256T316 281T341 341T316 401.5T256 427zM256 213Q220 213 189 204T139.5 182.5T108 158T90 137L85 128V85H427V128L422 137Q418 143 404 157.5T372.5 183.5T323.5 204T256 213z" />
    <glyph glyph-name="workflow"
      unicode="&#xF163;"
      horiz-adv-x="512" d=" M177 512Q158 512 158 492V374Q158 354 177 354H236V276H55Q49 274 46 272V271H45V270Q44 270 44 269L42 268V267Q42 266 41 266V265Q41 264 39 262V118H20Q0 118 0 98V20Q0 0 20 0H118Q138 0 138 20V98Q138 118 118 118H79V236H236V118H197Q191 118 189 117Q177 112 177 98V20Q177 0 197 0H315Q335 0 335 20V98Q335 118 315 118H276V236H433V118H394Q388 118 386 117Q374 112 374 98V20Q374 0 394 0H492Q512 0 512 20V98Q512 118 492 118H473V260Q472 261 472 262V263Q471 264 471 265H470V266Q470 267 468 269L467 270H466V271H465Q465 272 464.5 272T464 273H463V274H462Q461 274 459.5 275T457 276H276V354H335Q354 354 354 374V492Q354 512 335 512H177z" />
    <glyph glyph-name="yaml"
      unicode="&#xF164;"
      horiz-adv-x="512" d=" M85 448Q68 448 55.5 435.5T43 405V107Q43 89 55.5 76.5T85 64H427Q444 64 456.5 76.5T469 107V405Q469 423 456.5 435.5T427 448H85zM85 363H427V107H85V363zM256 320L213 149H256L299 320H256zM147 301L110 247L102 235L111 223L149 168L184 193L154 235L182 277zM365 301L330 277L358 235L330 192L365 169L402 223L409 235L402 247z" />
  </font>
</defs>
</svg>
