<?xml version="1.0" standalone="no"?>
<!DOCTYPE svg PUBLIC "-//W3C//DTD SVG 1.1//EN" "http://www.w3.org/Graphics/SVG/1.1/DTD/svg11.dtd" >
<svg xmlns="http://www.w3.org/2000/svg" xmlns:xlink="http://www.w3.org/1999/xlink" version="1.1" viewBox="0 0 512 512">
  <g transform="matrix(1 0 0 -1 0 512)">
   <path fill="currentColor"
d="M427 469h-342q-17 0 -29.5 -12.5t-12.5 -29.5v-342q0 -17 12.5 -29.5t29.5 -12.5h342q17 0 29.5 12.5t12.5 29.5v342q0 17 -12.5 29.5t-29.5 12.5zM235 303q0 -5 6 -9l11 -8l15 -7q15 -6 27.5 -12.5t21.5 -14.5q8 -10 13 -19q4 -7 4 -26q0 -8 -4 -26q-5 -9 -13 -19
l-19 -13q-5 -2 -15 -4l-11 -2v-32h-26v30q-13 0 -25 6q-5 2 -13 7l-9 6q-5 5 -15 21q-6 14 -6 32h45q0 -12 2 -19q4 -8 9 -13l10 -6q4 -2 13 -2t13 2t8.5 6.5t6.5 8.5t2 11.5t-2 9.5q-4 8 -7.5 9.5t-9.5 7.5l-15 7l-28 12q-14 7 -21 15q-10 10 -13 20q-4 6 -4 25q0 10 4 24
q3 9 13.5 19.5t18.5 12.5q12 6 25 6v41h26v-35q16 -4 23.5 -8.5t19.5 -14.5l7 -11q4 -8 6 -10q4 -18 4 -28h-45q0 19 -9 28q-5 8 -21 8q-8 0 -12.5 -2t-8.5 -6q-2 -2 -2 -7q0 -2 -1 -5t-1 -5q0 -7 2 -11z" />
  </g>

</svg>
