<svg x="0" y="0" version="1.1" xmlns="http://www.w3.org/2000/svg" xmlns:xlink="http://www.w3.org/1999/xlink" viewBox="0 0 26 26" width="104" height="104"><g fill="none" stroke="none" stroke-width="1" stroke-linecap="butt" stroke-linejoin="miter" stroke-miterlimit="10" stroke-dasharray="" stroke-dashoffset="0" font-family="sans-serif" font-weight="normal" font-size="12" text-anchor="start" mix-blend-mode="normal"><g><g><path d="M0,26l0,-26l26,0l0,26z" fill="none"/><g fill="#000000"><path d="M12.13171,23l10.8683,0c0.552,0 1,-0.448 1,-1l0,-14c0,-0.552 -0.448,-1 -1,-1l-20,0c-0.552,0 -1,0.448 -1,1l0,14c0,0.552 0.448,1 1,1l1.17126,0c0.11353,0.01522 0.22968,0.02308 0.34797,0.02308l7.3,0c0.08397,0 0.19049,-0.00564 0.31247,-0.02308z M23,25l-20,0c-1.656,0 -3,-1.344 -3,-3l0,-13l0,-1l0,-3c0,-1.656 1.344,-3 3,-3l5,0c1.656,0 3,1.344 3,3l12,0c1.656,0 3,1.344 3,3l0,14c0,1.656 -1.344,3 -3,3z"/></g><g fill="#000000"><g id="Windows_x5F_8"><path d="M14.46923,15.52308c-0.3,0 -0.5,0.1 -0.9,0.4c-0.5,0.4 -0.8,0.6 -0.9,0.1c-0.1,-0.5 -0.4,-2.3 -0.5,-2.7c-0.1,-0.3 -0.2,-0.5 -0.5,-0.6c0,0 -1.8,-0.3 -2.3,-0.5c-0.4,-0.1 -0.6,-0.3 -0.3,-0.9c0.3,-0.4 0.4,-0.6 0.4,-0.9c0,-0.8 -0.6,-1.4 -1.4,-1.4c-0.8,0 -1.4,0.6 -1.4,1.4c0,0.3 0.1,0.6 0.3,0.9c0.4,0.6 0.2,0.8 -0.3,0.9c-0.6,0.1 -2.3,0.5 -2.3,0.5c-0.2,0 -0.4,0.3 -0.4,0.5c0,0 0,0.7 0,2.6c0,0 0,0 0,0.1c0.1,0.5 0.5,0.2 0.9,-0.1c0.3,-0.2 0.6,-0.4 0.9,-0.4c0.8,0 1.4,0.6 1.4,1.4c0,0.8 -0.6,1.4 -1.4,1.4c-0.4,0 -0.6,-0.1 -0.9,-0.4c-0.3,-0.3 -0.8,-0.6 -0.9,-0.1l0,0.1c0,2 0,2.7 0,2.7c0,0.3 0.2,0.5 0.5,0.5l7.3,0c0.3,0 0.4,-0.2 0.5,-0.5c0,0 0.4,-2.3 0.5,-2.8c0.1,-0.5 0.4,-0.3 0.9,0.1c0.3,0.2 0.6,0.4 0.9,0.4c0.8,0 1.4,-0.6 1.4,-1.4c-0.1,-0.7 -0.7,-1.3 -1.5,-1.3z"/></g></g></g></g></g></svg>