<?xml version="1.0" standalone="no"?>
<!DOCTYPE svg PUBLIC "-//W3C//DTD SVG 1.1//EN" "http://www.w3.org/Graphics/SVG/1.1/DTD/svg11.dtd" >
<svg xmlns="http://www.w3.org/2000/svg" xmlns:xlink="http://www.w3.org/1999/xlink" version="1.1" viewBox="0 0 512 512">
  <g transform="matrix(1 0 0 -1 0 512)">
   <path fill="currentColor"
d="M107 448q-18 0 -30.5 -12.5t-12.5 -30.5v-156l77 -25q25 32 60 32l34 53v11q0 35 25 60t60 25t60 -25t25 -59.5t-23.5 -59.5t-57.5 -26l-47 -43v-11q0 -30 -22 -52t-52.5 -22t-52.5 22t-22 52v2l-64 22v-98q0 -18 12.5 -30.5t30.5 -12.5h298q18 0 30.5 12.5t12.5 30.5
v298q0 18 -12.5 30.5t-30.5 12.5h-298zM320 384q-26 0 -45 -19t-19 -45t19 -45t45 -19t45 19t19 45t-19 45t-45 19zM320 363q18 0 30.5 -12.5t12.5 -30.5t-12.5 -30.5t-30.5 -12.5t-30.5 12.5t-12.5 30.5t12.5 30.5t30.5 12.5zM203 235q-24 0 -39 -18l47 -14q19 -9 13 -28
q-7 -15 -21 -15q-5 0 -7 2l-47 15q2 -20 17.5 -34.5t37.5 -14.5t37 15t15 38t-15.5 38.5t-37.5 15.5z" />
  </g>

</svg>
