<?xml version="1.0" standalone="no"?>
<!DOCTYPE svg PUBLIC "-//W3C//DTD SVG 1.1//EN" "http://www.w3.org/Graphics/SVG/1.1/DTD/svg11.dtd" >
<svg xmlns="http://www.w3.org/2000/svg" xmlns:xlink="http://www.w3.org/1999/xlink" version="1.1" viewBox="0 0 512 512">
  <g transform="matrix(1 0 0 -1 0 512)">
   <path fill="currentColor"
d="M107 448q-18 0 -30.5 -12.5t-12.5 -30.5v-298q0 -18 12.5 -30.5t30.5 -12.5h298q9 0 11 2l-55 55q-14 -4 -20 -4q-22 0 -37.5 15.5t-15.5 38.5t15 38t38 15t38.5 -15.5t15.5 -37.5q0 -6 -4 -20l55 -55q0 2 1 5t1 6v298q0 18 -12.5 30.5t-30.5 12.5h-98l-87 -87
q4 -14 4 -20q0 -23 -15 -38t-38 -15t-38.5 15.5t-15.5 38t15.5 38t38.5 15.5q7 0 19 -4l57 57h-140zM341 395q23 0 38.5 -15.5t15.5 -38t-15.5 -38t-38.5 -15.5q-7 0 -19 4l-102 -102q4 -12 4 -19q0 -23 -15.5 -38.5t-38 -15.5t-38 15.5t-15.5 38t15.5 38t38.5 15.5
q7 0 19 -4l102 102q-4 12 -4 19q0 23 15.5 38.5t37.5 15.5zM171 363q-9 0 -15.5 -6.5t-6.5 -15t6.5 -15t15 -6.5t15 6.5t6.5 15t-6.5 15t-14.5 6.5zM341 363q-8 0 -14.5 -6.5t-6.5 -15t6.5 -15t15 -6.5t15 6.5t6.5 15t-6.5 15t-15.5 6.5zM171 192q-9 0 -15.5 -6.5t-6.5 -15
t6.5 -15t15 -6.5t15 6.5t6.5 15t-6.5 15t-14.5 6.5zM341 192q-8 0 -14.5 -6.5t-6.5 -15t6.5 -15t15 -6.5t15 6.5t6.5 15t-6.5 15t-15.5 6.5z" />
  </g>

</svg>
