<?xml version="1.0" standalone="no"?>
<!DOCTYPE svg PUBLIC "-//W3C//DTD SVG 1.1//EN" "http://www.w3.org/Graphics/SVG/1.1/DTD/svg11.dtd" >
<svg xmlns="http://www.w3.org/2000/svg" xmlns:xlink="http://www.w3.org/1999/xlink" version="1.1" viewBox="0 0 512 512">
  <g transform="matrix(1 0 0 -1 0 512)">
   <path fill="currentColor"
d="M107 469v-42h-22q-8 0 -14.5 -6.5t-6.5 -15.5v-21q0 -9 6.5 -15t14.5 -6h86q8 0 14.5 6t6.5 15v21q0 9 -6.5 15.5t-14.5 6.5h-22v42h-42zM235 469v-298h-22q-8 0 -14.5 -6.5t-6.5 -15.5v-21q0 -9 6.5 -15t14.5 -6h86q8 0 14.5 6t6.5 15v21q0 9 -6.5 15.5t-14.5 6.5h-22
v298h-42zM363 469v-149h-22q-8 0 -14.5 -6.5t-6.5 -14.5v-22q0 -8 6.5 -14.5t14.5 -6.5h86q8 0 14.5 6.5t6.5 14.5v22q0 8 -6.5 14.5t-14.5 6.5h-22v149h-42zM107 341v-298h42v298h-42zM363 235v-192h42v192h-42zM235 85v-42h42v42h-42z" />
  </g>

</svg>
